<mxfile host="app.diagrams.net" modified="2021-11-27T22:16:56.965Z" agent="5.0 (Windows)" etag="FE-9dG1hHM4cqV0aLUZv" version="14.7.6" type="github">
  <diagram id="4qcgYPeACVD64t_3w7zX" name="Page-1">
    <mxGraphModel dx="4405" dy="1880" grid="1" gridSize="10" guides="1" tooltips="1" connect="1" arrows="1" fold="1" page="1" pageScale="1" pageWidth="850" pageHeight="1100" math="0" shadow="0">
      <root>
        <mxCell id="0" />
        <mxCell id="1" parent="0" />
        <mxCell id="SJ6Oe2fIhcbohcmGYuYU-1" value="" style="endArrow=none;html=1;" parent="1" edge="1">
          <mxGeometry width="50" height="50" relative="1" as="geometry">
            <mxPoint x="840" y="100" as="sourcePoint" />
            <mxPoint x="840" y="20" as="targetPoint" />
          </mxGeometry>
        </mxCell>
        <mxCell id="SJ6Oe2fIhcbohcmGYuYU-2" value="" style="endArrow=none;html=1;" parent="1" edge="1">
          <mxGeometry width="50" height="50" relative="1" as="geometry">
            <mxPoint x="2490" y="60" as="sourcePoint" />
            <mxPoint x="-350" y="60" as="targetPoint" />
          </mxGeometry>
        </mxCell>
        <mxCell id="SJ6Oe2fIhcbohcmGYuYU-4" value="" style="endArrow=none;html=1;" parent="1" edge="1">
          <mxGeometry width="50" height="50" relative="1" as="geometry">
            <mxPoint x="-350" y="160" as="sourcePoint" />
            <mxPoint x="-350" y="60" as="targetPoint" />
          </mxGeometry>
        </mxCell>
        <mxCell id="SJ6Oe2fIhcbohcmGYuYU-7" value="" style="ellipse;whiteSpace=wrap;html=1;aspect=fixed;" parent="1" vertex="1">
          <mxGeometry x="-370" y="105" width="40" height="40" as="geometry" />
        </mxCell>
        <mxCell id="SJ6Oe2fIhcbohcmGYuYU-9" value="" style="endArrow=none;html=1;fontSize=12;" parent="1" edge="1">
          <mxGeometry width="50" height="50" relative="1" as="geometry">
            <mxPoint x="-350" y="185" as="sourcePoint" />
            <mxPoint x="-350" y="145" as="targetPoint" />
          </mxGeometry>
        </mxCell>
        <mxCell id="SJ6Oe2fIhcbohcmGYuYU-10" value="" style="endArrow=none;html=1;fontSize=12;" parent="1" edge="1">
          <mxGeometry width="50" height="50" relative="1" as="geometry">
            <mxPoint x="-270" y="185" as="sourcePoint" />
            <mxPoint x="-430" y="185" as="targetPoint" />
          </mxGeometry>
        </mxCell>
        <mxCell id="SJ6Oe2fIhcbohcmGYuYU-11" value="" style="endArrow=none;html=1;fontSize=12;" parent="1" edge="1">
          <mxGeometry width="50" height="50" relative="1" as="geometry">
            <mxPoint x="-430" y="185" as="sourcePoint" />
            <mxPoint x="-430" y="225" as="targetPoint" />
          </mxGeometry>
        </mxCell>
        <mxCell id="SJ6Oe2fIhcbohcmGYuYU-12" value="T(((-N_TILES_PER_SIDE/2) + (x+0.5)) * SQUARE_LENGTH, -GROUND_WIDTH/2, ((-N_TILES_PER_SIDE/2) + (z+0.5)) * SQUARE_LENGTH)" style="text;html=1;strokeColor=none;fillColor=none;align=center;verticalAlign=middle;whiteSpace=wrap;rounded=0;fontSize=10;" parent="1" vertex="1">
          <mxGeometry x="-580" y="115" width="210" height="20" as="geometry" />
        </mxCell>
        <mxCell id="SJ6Oe2fIhcbohcmGYuYU-14" value="" style="ellipse;whiteSpace=wrap;html=1;aspect=fixed;fontSize=10;" parent="1" vertex="1">
          <mxGeometry x="-450" y="220" width="40" height="40" as="geometry" />
        </mxCell>
        <mxCell id="SJ6Oe2fIhcbohcmGYuYU-16" value="S(SQUARE_LENGTH, GROUND_WIDTH, SQUARE_LENGTH)" style="text;html=1;strokeColor=none;fillColor=none;align=center;verticalAlign=middle;whiteSpace=wrap;rounded=0;fontSize=10;" parent="1" vertex="1">
          <mxGeometry x="-550" y="230" width="80" height="20" as="geometry" />
        </mxCell>
        <mxCell id="SJ6Oe2fIhcbohcmGYuYU-17" value="" style="endArrow=none;html=1;fontSize=10;entryX=0.5;entryY=1;entryDx=0;entryDy=0;" parent="1" target="SJ6Oe2fIhcbohcmGYuYU-14" edge="1">
          <mxGeometry width="50" height="50" relative="1" as="geometry">
            <mxPoint x="-430" y="300" as="sourcePoint" />
            <mxPoint x="10" y="330" as="targetPoint" />
          </mxGeometry>
        </mxCell>
        <mxCell id="SJ6Oe2fIhcbohcmGYuYU-18" value="CUBE (Tile)" style="text;html=1;strokeColor=none;fillColor=none;align=center;verticalAlign=middle;whiteSpace=wrap;rounded=0;fontSize=10;" parent="1" vertex="1">
          <mxGeometry x="-460" y="300" width="60" height="20" as="geometry" />
        </mxCell>
        <mxCell id="SJ6Oe2fIhcbohcmGYuYU-19" value="&lt;div&gt;. . .&lt;/div&gt;&lt;div style=&quot;font-size: 10px&quot;&gt;until last tile&lt;/div&gt;&lt;div style=&quot;font-size: 10px&quot;&gt;&lt;br&gt;&lt;/div&gt;" style="text;html=1;strokeColor=none;fillColor=none;align=center;verticalAlign=middle;whiteSpace=wrap;rounded=0;fontSize=30;" parent="1" vertex="1">
          <mxGeometry x="-385" y="230" width="70" height="20" as="geometry" />
        </mxCell>
        <mxCell id="SJ6Oe2fIhcbohcmGYuYU-22" value="" style="endArrow=none;html=1;fontSize=12;" parent="1" edge="1">
          <mxGeometry width="50" height="50" relative="1" as="geometry">
            <mxPoint x="-270" y="180" as="sourcePoint" />
            <mxPoint x="-270" y="220" as="targetPoint" />
          </mxGeometry>
        </mxCell>
        <mxCell id="SJ6Oe2fIhcbohcmGYuYU-23" value="" style="ellipse;whiteSpace=wrap;html=1;aspect=fixed;fontSize=10;" parent="1" vertex="1">
          <mxGeometry x="-290" y="220" width="40" height="40" as="geometry" />
        </mxCell>
        <mxCell id="SJ6Oe2fIhcbohcmGYuYU-24" value="S(SQUARE_LENGTH, GROUND_WIDTH, SQUARE_LENGTH)" style="text;html=1;strokeColor=none;fillColor=none;align=center;verticalAlign=middle;whiteSpace=wrap;rounded=0;fontSize=10;" parent="1" vertex="1">
          <mxGeometry x="-230" y="230" width="80" height="20" as="geometry" />
        </mxCell>
        <mxCell id="SJ6Oe2fIhcbohcmGYuYU-26" value="" style="endArrow=none;html=1;fontSize=10;entryX=0.5;entryY=1;entryDx=0;entryDy=0;" parent="1" edge="1">
          <mxGeometry width="50" height="50" relative="1" as="geometry">
            <mxPoint x="-270" y="300" as="sourcePoint" />
            <mxPoint x="-270" y="260" as="targetPoint" />
          </mxGeometry>
        </mxCell>
        <mxCell id="SJ6Oe2fIhcbohcmGYuYU-27" value="CUBE (Tile)" style="text;html=1;strokeColor=none;fillColor=none;align=center;verticalAlign=middle;whiteSpace=wrap;rounded=0;fontSize=10;" parent="1" vertex="1">
          <mxGeometry x="-300" y="300" width="60" height="20" as="geometry" />
        </mxCell>
        <mxCell id="SJ6Oe2fIhcbohcmGYuYU-28" value="" style="ellipse;whiteSpace=wrap;html=1;aspect=fixed;fontSize=30;" parent="1" vertex="1">
          <mxGeometry x="820" y="100" width="40" height="40" as="geometry" />
        </mxCell>
        <mxCell id="SJ6Oe2fIhcbohcmGYuYU-29" value="T(tankXTranslation, 0, 0)" style="text;html=1;strokeColor=none;fillColor=none;align=center;verticalAlign=middle;whiteSpace=wrap;rounded=0;fontSize=10;" parent="1" vertex="1">
          <mxGeometry x="690" y="105" width="120" height="30" as="geometry" />
        </mxCell>
        <mxCell id="SJ6Oe2fIhcbohcmGYuYU-30" value="" style="endArrow=none;html=1;fontSize=10;entryX=0.5;entryY=1;entryDx=0;entryDy=0;" parent="1" target="SJ6Oe2fIhcbohcmGYuYU-28" edge="1">
          <mxGeometry width="50" height="50" relative="1" as="geometry">
            <mxPoint x="840" y="180" as="sourcePoint" />
            <mxPoint x="760" y="220" as="targetPoint" />
          </mxGeometry>
        </mxCell>
        <mxCell id="SJ6Oe2fIhcbohcmGYuYU-31" value="" style="endArrow=none;html=1;fontSize=10;" parent="1" edge="1">
          <mxGeometry width="50" height="50" relative="1" as="geometry">
            <mxPoint x="160" y="180" as="sourcePoint" />
            <mxPoint x="1670" y="180" as="targetPoint" />
          </mxGeometry>
        </mxCell>
        <mxCell id="SJ6Oe2fIhcbohcmGYuYU-32" value="" style="endArrow=none;html=1;fontSize=10;" parent="1" edge="1">
          <mxGeometry width="50" height="50" relative="1" as="geometry">
            <mxPoint x="159.5" y="220" as="sourcePoint" />
            <mxPoint x="159.5" y="180" as="targetPoint" />
          </mxGeometry>
        </mxCell>
        <mxCell id="Z4t6oIIhtMBPpLowGCtb-2" value="" style="ellipse;whiteSpace=wrap;html=1;aspect=fixed;fontSize=30;" vertex="1" parent="1">
          <mxGeometry x="140" y="220" width="40" height="40" as="geometry" />
        </mxCell>
        <mxCell id="Z4t6oIIhtMBPpLowGCtb-4" value="" style="endArrow=none;html=1;entryX=0.5;entryY=1;entryDx=0;entryDy=0;exitX=0.5;exitY=0;exitDx=0;exitDy=0;" edge="1" parent="1" source="Z4t6oIIhtMBPpLowGCtb-6" target="Z4t6oIIhtMBPpLowGCtb-2">
          <mxGeometry width="50" height="50" relative="1" as="geometry">
            <mxPoint x="160" y="290" as="sourcePoint" />
            <mxPoint x="210" y="220" as="targetPoint" />
          </mxGeometry>
        </mxCell>
        <mxCell id="Z4t6oIIhtMBPpLowGCtb-6" value="" style="ellipse;whiteSpace=wrap;html=1;aspect=fixed;fontSize=30;" vertex="1" parent="1">
          <mxGeometry x="140" y="300" width="40" height="40" as="geometry" />
        </mxCell>
        <mxCell id="Z4t6oIIhtMBPpLowGCtb-8" value="S(BODY_LENGTH, BODY_HEIGHT, BODY_WIDTH)" style="text;html=1;strokeColor=none;fillColor=none;align=center;verticalAlign=middle;whiteSpace=wrap;rounded=0;fontSize=10;" vertex="1" parent="1">
          <mxGeometry x="20" y="300" width="130" height="40" as="geometry" />
        </mxCell>
        <mxCell id="Z4t6oIIhtMBPpLowGCtb-9" value="T(0, BODY_ELEVATION, 0)" style="text;html=1;strokeColor=none;fillColor=none;align=center;verticalAlign=middle;whiteSpace=wrap;rounded=0;fontSize=10;" vertex="1" parent="1">
          <mxGeometry y="230" width="140" height="20" as="geometry" />
        </mxCell>
        <mxCell id="Z4t6oIIhtMBPpLowGCtb-10" value="" style="endArrow=none;html=1;exitX=0.5;exitY=1;exitDx=0;exitDy=0;" edge="1" parent="1" source="Z4t6oIIhtMBPpLowGCtb-6" target="Z4t6oIIhtMBPpLowGCtb-12">
          <mxGeometry width="50" height="50" relative="1" as="geometry">
            <mxPoint x="310" y="340" as="sourcePoint" />
            <mxPoint x="160" y="520" as="targetPoint" />
          </mxGeometry>
        </mxCell>
        <mxCell id="Z4t6oIIhtMBPpLowGCtb-12" value="CUBE" style="text;html=1;strokeColor=none;fillColor=none;align=center;verticalAlign=middle;whiteSpace=wrap;rounded=0;" vertex="1" parent="1">
          <mxGeometry x="140" y="510" width="40" height="20" as="geometry" />
        </mxCell>
        <mxCell id="Z4t6oIIhtMBPpLowGCtb-13" value="" style="endArrow=none;html=1;" edge="1" parent="1">
          <mxGeometry width="50" height="50" relative="1" as="geometry">
            <mxPoint x="410" y="220" as="sourcePoint" />
            <mxPoint x="410" y="180" as="targetPoint" />
          </mxGeometry>
        </mxCell>
        <mxCell id="Z4t6oIIhtMBPpLowGCtb-14" value="" style="ellipse;whiteSpace=wrap;html=1;aspect=fixed;fontSize=30;" vertex="1" parent="1">
          <mxGeometry x="390" y="220" width="40" height="40" as="geometry" />
        </mxCell>
        <mxCell id="Z4t6oIIhtMBPpLowGCtb-15" value="" style="endArrow=none;html=1;entryX=0.5;entryY=1;entryDx=0;entryDy=0;" edge="1" parent="1" target="Z4t6oIIhtMBPpLowGCtb-14">
          <mxGeometry width="50" height="50" relative="1" as="geometry">
            <mxPoint x="410" y="300" as="sourcePoint" />
            <mxPoint x="490" y="250" as="targetPoint" />
          </mxGeometry>
        </mxCell>
        <mxCell id="Z4t6oIIhtMBPpLowGCtb-17" value="" style="ellipse;whiteSpace=wrap;html=1;aspect=fixed;fontSize=30;" vertex="1" parent="1">
          <mxGeometry x="390" y="300" width="40" height="40" as="geometry" />
        </mxCell>
        <mxCell id="Z4t6oIIhtMBPpLowGCtb-18" value="T(-0.25 - BODY_LENGTH/2, BODY_ELEVATION, 0)" style="text;html=1;strokeColor=none;fillColor=none;align=center;verticalAlign=middle;whiteSpace=wrap;rounded=0;fontSize=10;" vertex="1" parent="1">
          <mxGeometry x="250" y="215" width="140" height="50" as="geometry" />
        </mxCell>
        <mxCell id="Z4t6oIIhtMBPpLowGCtb-20" value="Rz(90)" style="text;html=1;strokeColor=none;fillColor=none;align=center;verticalAlign=middle;whiteSpace=wrap;rounded=0;fontSize=10;" vertex="1" parent="1">
          <mxGeometry x="330" y="312.5" width="60" height="15" as="geometry" />
        </mxCell>
        <mxCell id="Z4t6oIIhtMBPpLowGCtb-25" value="" style="endArrow=none;html=1;entryX=0.5;entryY=1;entryDx=0;entryDy=0;" edge="1" parent="1">
          <mxGeometry width="50" height="50" relative="1" as="geometry">
            <mxPoint x="410" y="380" as="sourcePoint" />
            <mxPoint x="410" y="340" as="targetPoint" />
          </mxGeometry>
        </mxCell>
        <mxCell id="Z4t6oIIhtMBPpLowGCtb-26" value="" style="ellipse;whiteSpace=wrap;html=1;aspect=fixed;fontSize=30;" vertex="1" parent="1">
          <mxGeometry x="390" y="380" width="40" height="40" as="geometry" />
        </mxCell>
        <mxCell id="Z4t6oIIhtMBPpLowGCtb-27" value="S(BODY_HEIGHT, 0.5, BODY_WIDTH)" style="text;html=1;strokeColor=none;fillColor=none;align=center;verticalAlign=middle;whiteSpace=wrap;rounded=0;fontSize=10;" vertex="1" parent="1">
          <mxGeometry x="280" y="382.5" width="100" height="37.5" as="geometry" />
        </mxCell>
        <mxCell id="Z4t6oIIhtMBPpLowGCtb-29" value="" style="endArrow=none;html=1;fontSize=10;exitX=0.5;exitY=1;exitDx=0;exitDy=0;" edge="1" parent="1" source="Z4t6oIIhtMBPpLowGCtb-26">
          <mxGeometry width="50" height="50" relative="1" as="geometry">
            <mxPoint x="260" y="370" as="sourcePoint" />
            <mxPoint x="410" y="510" as="targetPoint" />
          </mxGeometry>
        </mxCell>
        <mxCell id="Z4t6oIIhtMBPpLowGCtb-32" value="&lt;div&gt;PYRAMID (bumper)&lt;br&gt;&lt;/div&gt;" style="text;html=1;strokeColor=none;fillColor=none;align=center;verticalAlign=middle;whiteSpace=wrap;rounded=0;" vertex="1" parent="1">
          <mxGeometry x="350" y="510" width="120" height="20" as="geometry" />
        </mxCell>
        <mxCell id="Z4t6oIIhtMBPpLowGCtb-33" value="" style="endArrow=none;html=1;" edge="1" parent="1">
          <mxGeometry width="50" height="50" relative="1" as="geometry">
            <mxPoint x="610" y="220" as="sourcePoint" />
            <mxPoint x="610" y="180" as="targetPoint" />
          </mxGeometry>
        </mxCell>
        <mxCell id="Z4t6oIIhtMBPpLowGCtb-45" value="" style="edgeStyle=orthogonalEdgeStyle;rounded=0;orthogonalLoop=1;jettySize=auto;html=1;fontSize=10;" edge="1" parent="1" source="Z4t6oIIhtMBPpLowGCtb-34">
          <mxGeometry relative="1" as="geometry">
            <mxPoint x="610" y="340" as="targetPoint" />
          </mxGeometry>
        </mxCell>
        <mxCell id="Z4t6oIIhtMBPpLowGCtb-34" value="" style="ellipse;whiteSpace=wrap;html=1;aspect=fixed;fontSize=30;" vertex="1" parent="1">
          <mxGeometry x="590" y="220" width="40" height="40" as="geometry" />
        </mxCell>
        <mxCell id="Z4t6oIIhtMBPpLowGCtb-35" value="" style="endArrow=none;html=1;entryX=0.5;entryY=1;entryDx=0;entryDy=0;" edge="1" parent="1" target="Z4t6oIIhtMBPpLowGCtb-34">
          <mxGeometry width="50" height="50" relative="1" as="geometry">
            <mxPoint x="610" y="300" as="sourcePoint" />
            <mxPoint x="690" y="250" as="targetPoint" />
          </mxGeometry>
        </mxCell>
        <mxCell id="Z4t6oIIhtMBPpLowGCtb-36" value="" style="ellipse;whiteSpace=wrap;html=1;aspect=fixed;fontSize=30;" vertex="1" parent="1">
          <mxGeometry x="590" y="300" width="40" height="40" as="geometry" />
        </mxCell>
        <mxCell id="Z4t6oIIhtMBPpLowGCtb-37" value="T(0.25 + BODY_LENGTH/2, BODY_ELEVATION, 0)" style="text;html=1;strokeColor=none;fillColor=none;align=center;verticalAlign=middle;whiteSpace=wrap;rounded=0;fontSize=10;" vertex="1" parent="1">
          <mxGeometry x="450" y="215" width="140" height="50" as="geometry" />
        </mxCell>
        <mxCell id="Z4t6oIIhtMBPpLowGCtb-38" value="Rz(-90)" style="text;html=1;strokeColor=none;fillColor=none;align=center;verticalAlign=middle;whiteSpace=wrap;rounded=0;fontSize=10;" vertex="1" parent="1">
          <mxGeometry x="530" y="312.5" width="60" height="15" as="geometry" />
        </mxCell>
        <mxCell id="Z4t6oIIhtMBPpLowGCtb-39" value="" style="endArrow=none;html=1;entryX=0.5;entryY=1;entryDx=0;entryDy=0;" edge="1" parent="1">
          <mxGeometry width="50" height="50" relative="1" as="geometry">
            <mxPoint x="610" y="380" as="sourcePoint" />
            <mxPoint x="610" y="340" as="targetPoint" />
          </mxGeometry>
        </mxCell>
        <mxCell id="Z4t6oIIhtMBPpLowGCtb-40" value="" style="ellipse;whiteSpace=wrap;html=1;aspect=fixed;fontSize=30;" vertex="1" parent="1">
          <mxGeometry x="590" y="380" width="40" height="40" as="geometry" />
        </mxCell>
        <mxCell id="Z4t6oIIhtMBPpLowGCtb-41" value="S(BODY_HEIGHT, 0.5, BODY_WIDTH)" style="text;html=1;strokeColor=none;fillColor=none;align=center;verticalAlign=middle;whiteSpace=wrap;rounded=0;fontSize=10;" vertex="1" parent="1">
          <mxGeometry x="480" y="382.5" width="100" height="37.5" as="geometry" />
        </mxCell>
        <mxCell id="Z4t6oIIhtMBPpLowGCtb-42" value="" style="endArrow=none;html=1;fontSize=10;exitX=0.5;exitY=1;exitDx=0;exitDy=0;" edge="1" parent="1" source="Z4t6oIIhtMBPpLowGCtb-40">
          <mxGeometry width="50" height="50" relative="1" as="geometry">
            <mxPoint x="460" y="370" as="sourcePoint" />
            <mxPoint x="610" y="510" as="targetPoint" />
          </mxGeometry>
        </mxCell>
        <mxCell id="Z4t6oIIhtMBPpLowGCtb-43" value="&lt;div&gt;PYRAMID (bumper)&lt;br&gt;&lt;/div&gt;" style="text;html=1;strokeColor=none;fillColor=none;align=center;verticalAlign=middle;whiteSpace=wrap;rounded=0;" vertex="1" parent="1">
          <mxGeometry x="550" y="510" width="120" height="20" as="geometry" />
        </mxCell>
        <mxCell id="Z4t6oIIhtMBPpLowGCtb-48" value="" style="endArrow=none;html=1;" edge="1" parent="1">
          <mxGeometry width="50" height="50" relative="1" as="geometry">
            <mxPoint x="1070" y="220" as="sourcePoint" />
            <mxPoint x="1070" y="180" as="targetPoint" />
          </mxGeometry>
        </mxCell>
        <mxCell id="Z4t6oIIhtMBPpLowGCtb-49" value="" style="ellipse;whiteSpace=wrap;html=1;aspect=fixed;fontSize=30;" vertex="1" parent="1">
          <mxGeometry x="1050" y="220" width="40" height="40" as="geometry" />
        </mxCell>
        <mxCell id="Z4t6oIIhtMBPpLowGCtb-50" value="" style="endArrow=none;html=1;entryX=0.5;entryY=1;entryDx=0;entryDy=0;" edge="1" parent="1" target="Z4t6oIIhtMBPpLowGCtb-49">
          <mxGeometry width="50" height="50" relative="1" as="geometry">
            <mxPoint x="1070" y="300" as="sourcePoint" />
            <mxPoint x="1150" y="250" as="targetPoint" />
          </mxGeometry>
        </mxCell>
        <mxCell id="Z4t6oIIhtMBPpLowGCtb-51" value="" style="ellipse;whiteSpace=wrap;html=1;aspect=fixed;fontSize=30;" vertex="1" parent="1">
          <mxGeometry x="1050" y="300" width="40" height="40" as="geometry" />
        </mxCell>
        <mxCell id="Z4t6oIIhtMBPpLowGCtb-52" value="T(0, BODY_ELEVATION + HATCH_HEIGHT/2, 0)" style="text;html=1;strokeColor=none;fillColor=none;align=center;verticalAlign=middle;whiteSpace=wrap;rounded=0;fontSize=10;" vertex="1" parent="1">
          <mxGeometry x="920" y="215" width="130" height="50" as="geometry" />
        </mxCell>
        <mxCell id="Z4t6oIIhtMBPpLowGCtb-53" value="Ry(hatchYRotation)" style="text;html=1;strokeColor=none;fillColor=none;align=center;verticalAlign=middle;whiteSpace=wrap;rounded=0;fontSize=10;" vertex="1" parent="1">
          <mxGeometry x="970" y="312.5" width="60" height="15" as="geometry" />
        </mxCell>
        <mxCell id="Z4t6oIIhtMBPpLowGCtb-55" value="" style="endArrow=none;html=1;fontSize=10;entryX=0.5;entryY=1;entryDx=0;entryDy=0;" edge="1" parent="1" target="Z4t6oIIhtMBPpLowGCtb-51">
          <mxGeometry width="50" height="50" relative="1" as="geometry">
            <mxPoint x="1070" y="360" as="sourcePoint" />
            <mxPoint x="1060" y="376.25" as="targetPoint" />
          </mxGeometry>
        </mxCell>
        <mxCell id="Z4t6oIIhtMBPpLowGCtb-56" value="" style="endArrow=none;html=1;fontSize=10;" edge="1" parent="1">
          <mxGeometry width="50" height="50" relative="1" as="geometry">
            <mxPoint x="870" y="360" as="sourcePoint" />
            <mxPoint x="1300" y="360" as="targetPoint" />
          </mxGeometry>
        </mxCell>
        <mxCell id="Z4t6oIIhtMBPpLowGCtb-57" value="" style="endArrow=none;html=1;fontSize=10;" edge="1" parent="1">
          <mxGeometry width="50" height="50" relative="1" as="geometry">
            <mxPoint x="870" y="360" as="sourcePoint" />
            <mxPoint x="870" y="380" as="targetPoint" />
          </mxGeometry>
        </mxCell>
        <mxCell id="Z4t6oIIhtMBPpLowGCtb-58" value="" style="ellipse;whiteSpace=wrap;html=1;aspect=fixed;fontSize=30;" vertex="1" parent="1">
          <mxGeometry x="850" y="380" width="40" height="40" as="geometry" />
        </mxCell>
        <mxCell id="Z4t6oIIhtMBPpLowGCtb-59" value="S(BODY_LENGTH * 0.5, HATCH_HEIGHT, BODY_WIDTH)" style="text;html=1;strokeColor=none;fillColor=none;align=center;verticalAlign=middle;whiteSpace=wrap;rounded=0;fontSize=10;" vertex="1" parent="1">
          <mxGeometry x="690" y="381.25" width="160" height="37.5" as="geometry" />
        </mxCell>
        <mxCell id="Z4t6oIIhtMBPpLowGCtb-60" value="" style="endArrow=none;html=1;fontSize=10;entryX=0.5;entryY=1;entryDx=0;entryDy=0;" edge="1" parent="1" target="Z4t6oIIhtMBPpLowGCtb-58">
          <mxGeometry width="50" height="50" relative="1" as="geometry">
            <mxPoint x="870" y="510" as="sourcePoint" />
            <mxPoint x="750" y="410" as="targetPoint" />
          </mxGeometry>
        </mxCell>
        <mxCell id="Z4t6oIIhtMBPpLowGCtb-61" value="SPHERE (hatch)" style="text;html=1;strokeColor=none;fillColor=none;align=center;verticalAlign=middle;whiteSpace=wrap;rounded=0;" vertex="1" parent="1">
          <mxGeometry x="810" y="510" width="120" height="20" as="geometry" />
        </mxCell>
        <mxCell id="Z4t6oIIhtMBPpLowGCtb-62" value="" style="endArrow=none;html=1;fontSize=10;" edge="1" parent="1">
          <mxGeometry width="50" height="50" relative="1" as="geometry">
            <mxPoint x="1300" y="359.9999999999999" as="sourcePoint" />
            <mxPoint x="1300" y="379.9999999999999" as="targetPoint" />
          </mxGeometry>
        </mxCell>
        <mxCell id="Z4t6oIIhtMBPpLowGCtb-63" value="" style="ellipse;whiteSpace=wrap;html=1;aspect=fixed;fontSize=30;" vertex="1" parent="1">
          <mxGeometry x="1280" y="380" width="40" height="40" as="geometry" />
        </mxCell>
        <mxCell id="Z4t6oIIhtMBPpLowGCtb-64" value="Rz(hatchZRotation)" style="text;html=1;strokeColor=none;fillColor=none;align=center;verticalAlign=middle;whiteSpace=wrap;rounded=0;fontSize=10;" vertex="1" parent="1">
          <mxGeometry x="1180" y="381.25" width="100" height="37.5" as="geometry" />
        </mxCell>
        <mxCell id="Z4t6oIIhtMBPpLowGCtb-65" value="" style="endArrow=none;html=1;fontSize=10;" edge="1" parent="1">
          <mxGeometry width="50" height="50" relative="1" as="geometry">
            <mxPoint x="1160" y="450" as="sourcePoint" />
            <mxPoint x="1430" y="450" as="targetPoint" />
          </mxGeometry>
        </mxCell>
        <mxCell id="Z4t6oIIhtMBPpLowGCtb-66" value="" style="endArrow=none;html=1;fontSize=10;" edge="1" parent="1">
          <mxGeometry width="50" height="50" relative="1" as="geometry">
            <mxPoint x="1159.83" y="449.9999999999999" as="sourcePoint" />
            <mxPoint x="1159.83" y="469.9999999999999" as="targetPoint" />
          </mxGeometry>
        </mxCell>
        <mxCell id="Z4t6oIIhtMBPpLowGCtb-67" value="" style="ellipse;whiteSpace=wrap;html=1;aspect=fixed;fontSize=30;" vertex="1" parent="1">
          <mxGeometry x="1140" y="470" width="40" height="40" as="geometry" />
        </mxCell>
        <mxCell id="Z4t6oIIhtMBPpLowGCtb-69" value="" style="endArrow=none;html=1;fontSize=10;exitX=0.5;exitY=1;exitDx=0;exitDy=0;" edge="1" parent="1" source="Z4t6oIIhtMBPpLowGCtb-63">
          <mxGeometry width="50" height="50" relative="1" as="geometry">
            <mxPoint x="1310" y="369.9999999999999" as="sourcePoint" />
            <mxPoint x="1300" y="450" as="targetPoint" />
          </mxGeometry>
        </mxCell>
        <mxCell id="Z4t6oIIhtMBPpLowGCtb-70" value="T(CANNON_TRANSLATION, CANNON_TRANSLATION, 0)" style="text;html=1;strokeColor=none;fillColor=none;align=center;verticalAlign=middle;whiteSpace=wrap;rounded=0;fontSize=10;" vertex="1" parent="1">
          <mxGeometry x="990" y="480" width="150" height="20" as="geometry" />
        </mxCell>
        <mxCell id="Z4t6oIIhtMBPpLowGCtb-72" value="" style="endArrow=none;html=1;entryX=0.5;entryY=1;entryDx=0;entryDy=0;" edge="1" parent="1">
          <mxGeometry width="50" height="50" relative="1" as="geometry">
            <mxPoint x="1159.6599999999996" y="550" as="sourcePoint" />
            <mxPoint x="1159.6599999999996" y="510" as="targetPoint" />
          </mxGeometry>
        </mxCell>
        <mxCell id="Z4t6oIIhtMBPpLowGCtb-73" value="" style="ellipse;whiteSpace=wrap;html=1;aspect=fixed;fontSize=30;" vertex="1" parent="1">
          <mxGeometry x="1140" y="550" width="40" height="40" as="geometry" />
        </mxCell>
        <mxCell id="Z4t6oIIhtMBPpLowGCtb-74" value="Rz(DEFAULT_CANNON_ROTATION)" style="text;html=1;strokeColor=none;fillColor=none;align=center;verticalAlign=middle;whiteSpace=wrap;rounded=0;fontSize=10;" vertex="1" parent="1">
          <mxGeometry x="950" y="560" width="180" height="20" as="geometry" />
        </mxCell>
        <mxCell id="Z4t6oIIhtMBPpLowGCtb-75" value="S(CANNON_RADIUS, CANNON_LENGTH, CANNON_RADIUS)" style="text;html=1;strokeColor=none;fillColor=none;align=center;verticalAlign=middle;whiteSpace=wrap;rounded=0;fontSize=10;" vertex="1" parent="1">
          <mxGeometry x="1020" y="631.25" width="110" height="37.5" as="geometry" />
        </mxCell>
        <mxCell id="Z4t6oIIhtMBPpLowGCtb-76" value="" style="endArrow=none;html=1;entryX=0.5;entryY=1;entryDx=0;entryDy=0;" edge="1" parent="1">
          <mxGeometry width="50" height="50" relative="1" as="geometry">
            <mxPoint x="1159.6599999999999" y="630" as="sourcePoint" />
            <mxPoint x="1159.6599999999999" y="590" as="targetPoint" />
          </mxGeometry>
        </mxCell>
        <mxCell id="Z4t6oIIhtMBPpLowGCtb-77" value="" style="ellipse;whiteSpace=wrap;html=1;aspect=fixed;fontSize=30;" vertex="1" parent="1">
          <mxGeometry x="1140" y="630" width="40" height="40" as="geometry" />
        </mxCell>
        <mxCell id="Z4t6oIIhtMBPpLowGCtb-78" value="" style="endArrow=none;html=1;fontSize=10;" edge="1" parent="1">
          <mxGeometry width="50" height="50" relative="1" as="geometry">
            <mxPoint x="1429.83" y="450" as="sourcePoint" />
            <mxPoint x="1429.83" y="470" as="targetPoint" />
          </mxGeometry>
        </mxCell>
        <mxCell id="Z4t6oIIhtMBPpLowGCtb-79" value="" style="ellipse;whiteSpace=wrap;html=1;aspect=fixed;fontSize=30;" vertex="1" parent="1">
          <mxGeometry x="1410" y="470" width="40" height="40" as="geometry" />
        </mxCell>
        <mxCell id="Z4t6oIIhtMBPpLowGCtb-81" value="T(SUPPRESSOR_TRANSLATION, SUPPRESSOR_TRANSLATION, 0)" style="text;html=1;strokeColor=none;fillColor=none;align=center;verticalAlign=middle;whiteSpace=wrap;rounded=0;fontSize=10;" vertex="1" parent="1">
          <mxGeometry x="1240" y="480" width="170" height="20" as="geometry" />
        </mxCell>
        <mxCell id="Z4t6oIIhtMBPpLowGCtb-82" value="Rz(DEFAULT_CANNON_ROTATION)" style="text;html=1;strokeColor=none;fillColor=none;align=center;verticalAlign=middle;whiteSpace=wrap;rounded=0;fontSize=10;" vertex="1" parent="1">
          <mxGeometry x="1230" y="560" width="180" height="20" as="geometry" />
        </mxCell>
        <mxCell id="Z4t6oIIhtMBPpLowGCtb-83" value="" style="endArrow=none;html=1;entryX=0.5;entryY=1;entryDx=0;entryDy=0;" edge="1" parent="1">
          <mxGeometry width="50" height="50" relative="1" as="geometry">
            <mxPoint x="1429.6599999999999" y="550" as="sourcePoint" />
            <mxPoint x="1429.6599999999999" y="510" as="targetPoint" />
          </mxGeometry>
        </mxCell>
        <mxCell id="Z4t6oIIhtMBPpLowGCtb-84" value="" style="ellipse;whiteSpace=wrap;html=1;aspect=fixed;fontSize=30;" vertex="1" parent="1">
          <mxGeometry x="1410" y="550" width="40" height="40" as="geometry" />
        </mxCell>
        <mxCell id="Z4t6oIIhtMBPpLowGCtb-85" value="S(SUPPRESSOR_RADIUS, SUPPRESSOR_LENGTH, SUPPRESSOR_RADIUS)" style="text;html=1;strokeColor=none;fillColor=none;align=center;verticalAlign=middle;whiteSpace=wrap;rounded=0;fontSize=10;" vertex="1" parent="1">
          <mxGeometry x="1290" y="631.25" width="110" height="37.5" as="geometry" />
        </mxCell>
        <mxCell id="Z4t6oIIhtMBPpLowGCtb-86" value="" style="endArrow=none;html=1;entryX=0.5;entryY=1;entryDx=0;entryDy=0;" edge="1" parent="1">
          <mxGeometry width="50" height="50" relative="1" as="geometry">
            <mxPoint x="1429.6599999999999" y="630" as="sourcePoint" />
            <mxPoint x="1429.6599999999999" y="590" as="targetPoint" />
          </mxGeometry>
        </mxCell>
        <mxCell id="Z4t6oIIhtMBPpLowGCtb-87" value="" style="ellipse;whiteSpace=wrap;html=1;aspect=fixed;fontSize=30;" vertex="1" parent="1">
          <mxGeometry x="1410" y="630" width="40" height="40" as="geometry" />
        </mxCell>
        <mxCell id="Z4t6oIIhtMBPpLowGCtb-88" value="" style="endArrow=none;html=1;exitX=0.5;exitY=1;exitDx=0;exitDy=0;" edge="1" parent="1">
          <mxGeometry width="50" height="50" relative="1" as="geometry">
            <mxPoint x="1159.9999999999995" y="670" as="sourcePoint" />
            <mxPoint x="1160" y="760" as="targetPoint" />
          </mxGeometry>
        </mxCell>
        <mxCell id="Z4t6oIIhtMBPpLowGCtb-89" value="TORUS (cannon)" style="text;html=1;strokeColor=none;fillColor=none;align=center;verticalAlign=middle;whiteSpace=wrap;rounded=0;" vertex="1" parent="1">
          <mxGeometry x="1105" y="760" width="110" height="20" as="geometry" />
        </mxCell>
        <mxCell id="Z4t6oIIhtMBPpLowGCtb-92" value="" style="endArrow=none;html=1;exitX=0.5;exitY=1;exitDx=0;exitDy=0;" edge="1" parent="1">
          <mxGeometry width="50" height="50" relative="1" as="geometry">
            <mxPoint x="1429.9999999999995" y="670" as="sourcePoint" />
            <mxPoint x="1430" y="760" as="targetPoint" />
          </mxGeometry>
        </mxCell>
        <mxCell id="Z4t6oIIhtMBPpLowGCtb-93" value="TORUS (supressor)" style="text;html=1;strokeColor=none;fillColor=none;align=center;verticalAlign=middle;whiteSpace=wrap;rounded=0;" vertex="1" parent="1">
          <mxGeometry x="1372.5" y="760" width="115" height="20" as="geometry" />
        </mxCell>
      </root>
    </mxGraphModel>
  </diagram>
</mxfile>
